Coordinates
version=1
nRows=54
nColumns=12
inDegrees=yes

Units are S.I. units (second, meters, Newtons, ...)
Angles are in degrees

endheader
time	SC_y	SC_z	SC_x	AC_y	AC_z	AC_x	GH_y	GH_z	GH_yy	EL_x	PS_y
       0.0              -52.45         -3.862          21.73          68.86          2.946         -7.189          118.4          21.68          55.05          43.43          17.98
   0.04202              -52.45         -3.861          21.73          68.86          2.945         -7.189          118.4          21.68          55.03          43.44          17.98
   0.08405              -52.45         -3.859          21.73          68.86          2.943         -7.188          118.3          21.67          55.01          43.45          17.99
    0.1261              -52.45         -3.858          21.73          68.85          2.941         -7.188          118.3          21.67          54.98          43.46          17.99
    0.1681              -52.45         -3.856          21.73          68.85          2.939         -7.188          118.3          21.67          54.95          43.47           18.0
    0.2101              -52.45         -3.854          21.73          68.84          2.937         -7.187          118.3          21.67          54.93          43.48          18.01
    0.2521              -52.44         -3.852          21.72          68.84          2.935         -7.187          118.2          21.66           54.9          43.49          18.01
    0.2942              -52.44          -3.85          21.72          68.84          2.932         -7.186          118.2          21.66          54.86           43.5          18.02
    0.3362              -52.44         -3.848          21.72          68.83           2.93         -7.186          118.2          21.66          54.83          43.51          18.03
    0.3782              -52.44         -3.845          21.72          68.83          2.927         -7.185          118.1          21.65          54.79          43.52          18.04
    0.4202              -52.44         -3.842          21.72          68.82          2.924         -7.185          118.1          21.65          54.75          43.54          18.05
    0.4623              -52.44          -3.84          21.71          68.82          2.921         -7.184          118.1          21.64          54.71          43.55          18.06
    0.5043              -52.44         -3.837          21.71          68.81          2.917         -7.183          118.0          21.64          54.66          43.57          18.07
    0.5463              -52.44         -3.833          21.71           68.8          2.914         -7.183          118.0          21.63          54.61          43.58          18.08
    0.5883              -52.44          -3.83          21.71           68.8           2.91         -7.182          117.9          21.63          54.56           43.6          18.09
    0.6303              -52.44         -3.826           21.7          68.79          2.905         -7.181          117.9          21.62           54.5          43.62          18.11
    0.6724              -52.43         -3.822           21.7          68.78            2.9          -7.18          117.8          21.61          54.43          43.64          18.12
    0.7144              -52.43         -3.817           21.7          68.77          2.895         -7.179          117.7           21.6          54.36          43.67          18.14
    0.7564              -52.43         -3.812          21.69          68.76          2.889         -7.178          117.7           21.6          54.29          43.69          18.16
    0.7984              -52.43         -3.806          21.69          68.75          2.883         -7.177          117.6          21.59           54.2          43.72          18.18
    0.8405              -52.43           -3.8          21.68          68.74          2.876         -7.176          117.5          21.58          54.11          43.75           18.2
    0.8825              -52.43         -3.794          21.68          68.72          2.869         -7.174          117.4          21.57          54.01          43.79          18.23
    0.9245              -52.42         -3.786          21.67          68.71          2.861         -7.173          117.3          21.55           53.9          43.82          18.25
    0.9665              -52.42         -3.778          21.66          68.69          2.851         -7.171          117.2          21.54          53.78          43.87          18.28
     1.009              -52.42         -3.769          21.66          68.67          2.841         -7.169          117.1          21.52          53.64          43.91          18.31
     1.051              -52.41         -3.759          21.65          68.65           2.83         -7.167          116.9          21.51          53.49          43.96          18.35
     1.093              -52.41         -3.748          21.64          68.63          2.817         -7.164          116.8          21.49          53.32          44.02          18.39
     1.135               -52.4         -3.735          21.63          68.61          2.803         -7.162          116.6          21.47          53.12          44.09          18.44
     1.177               -52.4         -3.721          21.62          68.58          2.786         -7.159          116.4          21.44          52.91          44.16          18.49
     1.219              -52.39         -3.704           21.6          68.54          2.768         -7.155          116.1          21.42          52.66          44.25          18.55
     1.261              -52.39         -3.686          21.59          68.51          2.747         -7.151          115.9          21.39          52.38          44.34          18.62
     1.303              -52.38         -3.664          21.57          68.46          2.723         -7.146          115.6          21.35          52.05          44.45           18.7
     1.345              -52.37         -3.639          21.55          68.41          2.695         -7.141          115.2          21.31          51.68          44.58          18.79
     1.387              -52.36         -3.611          21.53          68.36          2.662         -7.135          114.8          21.26          51.24          44.73          18.89
     1.429              -52.35         -3.577           21.5          68.29          2.624         -7.128          114.3          21.21          50.73           44.9          19.01
     1.471              -52.34         -3.537          21.47          68.21           2.58         -7.119          113.8          21.14          50.14           45.1          19.15
     1.513              -52.32          -3.49          21.43          68.11          2.526         -7.109          113.1          21.06          49.42          45.35          19.33
     1.555               -52.3         -3.434          21.38           68.0          2.463         -7.097          112.3          20.97          48.57          45.64          19.53
     1.597              -52.28         -3.366          21.33          67.86          2.386         -7.083          111.3          20.85          47.54          45.99          19.78
     1.639              -52.25         -3.282          21.26           67.7          2.291         -7.065          110.2          20.72          46.27          46.42          20.08
     1.681              -52.22         -3.179          21.17          67.49          2.175         -7.043          108.7          20.54          44.72          46.94          20.45
     1.723              -52.17         -3.051          21.07          67.23           2.03         -7.015          106.9          20.33          42.78           47.6          20.92
     1.765              -52.12         -2.889          20.94          66.91          1.848          -6.98          104.6          20.06          40.33          48.44          21.51
     1.807              -52.05         -2.684          20.77          66.49          1.616         -6.936          101.7          19.72          37.22          49.49          22.25
     1.849              -51.96         -2.421          20.55          65.96          1.318          -6.88          97.95          19.28          33.24          50.84          23.21
     1.891              -51.84         -2.083          20.28          65.28         0.9372         -6.808          93.16          18.72          28.13          52.58          24.43
     1.933              -51.69         -1.652          19.93          64.42         0.4503         -6.715          87.05           18.0           21.6           54.8           26.0
     1.975              -51.51         -1.109          19.48          63.33        -0.1621         -6.599          79.37           17.1           13.4          57.59          27.96
     2.017              -51.28        -0.4487          18.94           62.0        -0.9083         -6.457           70.0           16.0          3.401          60.98          30.36
     2.059              -51.02         0.3173          18.32          60.46         -1.773         -6.293          59.14          14.73         -8.188          64.92          33.14
     2.101              -50.74          1.147          17.64          58.79          -2.71         -6.116          47.39          13.35         -20.74          69.19          36.15
     2.143              -50.46          1.976          16.96          57.12         -3.646         -5.938          35.64          11.97         -33.29          73.45          39.15
     2.185              -50.19          2.742          16.33          55.58         -4.511         -5.774          24.78           10.7         -44.88          77.39          41.93
     2.227              -49.97          3.403          15.79          54.26         -5.257         -5.632          15.42          9.599         -54.87          80.78          44.33
